#N canvas 0 0 667 709 10;
#X declare -lib mrpeach;
#X floatatom 8 -120 10 0 0 0 - - -;
#X obj 35 -44 * 1000;
#X floatatom 35 -21 10 0 0 0 - - -;
#X obj 8 6 pack 0 0;
#X obj 8 -98 t f f;
#X obj 8 160 line~;
#X obj 8 29 prepend set;
#X msg 8 78 11969 271.406;
#X obj -5 346 dac~;
#X obj 6 319 *~ 0.05;
#X obj 8 108 t a b;
#X msg 35 130 0;
#X obj 35 -67 / 44100;
#X obj 8 -175 soundfiler;
#X floatatom 8 -147 10 0 0 0 - - -;
#N canvas 0 0 450 300 (subpatch) 0;
#X array background 2.64704e+006 float 2;
#X coords 0 1 2.64704e+006 -1 200 140 1;
#X restore 486 366 graph;
#X obj 495 -233 udpreceive 12000;
#X obj 495 -201 unpackOSC;
#X floatatom 606 -142 5 0 0 0 - - -;
#X obj 605 -234 import mrpeach;
#X obj 495 -170 routeOSC /x;
#X obj 513 -20 s coinbang;
#X obj 96 44 bng 15 250 50 0 empty empty empty 17 7 0 10 -262144 -1
-1;
#X obj 8 -226 bng 15 250 50 0 empty empty empty 17 7 0 10 -262144 -1
-1;
#X obj 622 133 s coinbang1;
#X obj 603 157 s bang;
#X obj 107 -19 r bang;
#X obj 8 -253 r coinbang1;
#X obj 603 35 r coinbang;
#X obj 495 6 s background;
#X obj 603 57 bng 15 250 50 0 empty empty empty 17 7 0 10 -262144 -1
-1;
#X obj 492 35 r background;
#X obj 492 59 bng 15 250 50 0 empty empty empty 17 7 0 10 -262144 -1
-1;
#X obj 511 133 s background1;
#X floatatom 252 -94 10 0 0 0 - - -;
#X obj 279 -18 * 1000;
#X floatatom 279 5 10 0 0 0 - - -;
#X obj 252 32 pack 0 0;
#X obj 252 -72 t f f;
#X obj 252 186 line~;
#X obj 252 55 prepend set;
#X msg 252 104 2.64704e+006 60023.6;
#X obj 239 374 dac~;
#X obj 250 346 *~ 0.05;
#X obj 252 134 t a b;
#X msg 279 156 0;
#X obj 279 -41 / 44100;
#X obj 252 -149 soundfiler;
#X floatatom 252 -121 10 0 0 0 - - -;
#X obj 340 70 bng 15 250 50 0 empty empty empty 17 7 0 10 -262144 -1
-1;
#X obj 252 -231 r background1;
#X obj 252 -206 bng 15 250 50 0 empty empty empty 17 7 0 10 -262144
-1 -1;
#X obj 492 157 s bang1;
#X obj 356 22 r bang1;
#X msg 252 -182 read -resize background.wav background;
#X obj 251 222 tabread4~ background;
#N canvas 0 0 450 300 (subpatch) 0;
#X array soundeffects 101798 float 2;
#X coords 0 1 101798 -1 200 140 1 0 0;
#X restore 487 528 graph;
#X obj 492 79 t b b b;
#X obj 531 110 s volume1;
#X obj 289 246 r volume1;
#X obj 289 270 bng 15 250 50 0 empty empty empty 17 7 0 10 -262144
-1 -1;
#X obj 603 76 t b b b;
#X obj 642 103 s volume2;
#X obj 45 245 bng 15 250 50 0 empty empty empty 17 7 0 10 -262144 -1
-1;
#X obj 45 221 r volume2;
#X msg 289 294 0.125;
#X msg 45 269 0.25;
#X msg 330 314 0;
#X obj 532 -46 s stop;
#X obj 330 269 r stop;
#X obj 330 291 bng 15 250 50 0 empty empty empty 17 7 0 10 -262144
-1 -1;
#X obj 550 -73 s death;
#X obj 7 197 tabread4~ soundeffects;
#X msg 8 -202 read -resize coin.wav soundeffects;
#X obj 492 207 bng 15 250 50 0 empty empty empty 17 7 0 10 -262144
-1 -1;
#X obj 492 226 t b b b;
#X obj 492 185 r death;
#X obj 531 253 s volume3;
#X obj 113 221 r volume3;
#X obj 113 247 bng 15 250 50 0 empty empty empty 17 7 0 10 -262144
-1 -1;
#X msg 113 269 0.35;
#X obj 511 283 s death1;
#X obj 492 307 s death2;
#X floatatom 4 516 10 0 0 0 - - -;
#X obj 31 592 * 1000;
#X floatatom 31 615 10 0 0 0 - - -;
#X obj 4 642 pack 0 0;
#X obj 4 538 t f f;
#X obj 4 796 line~;
#X obj 4 665 prepend set;
#X msg 4 714 29334 665.17;
#X obj -9 984 dac~;
#X obj 2 956 *~ 0.05;
#X obj 4 744 t a b;
#X msg 31 766 0;
#X obj 31 569 / 44100;
#X obj 4 461 soundfiler;
#X floatatom 4 489 10 0 0 0 - - -;
#X obj 92 680 bng 15 250 50 0 empty empty empty 17 7 0 10 -262144 -1
-1;
#X obj 4 408 bng 15 250 50 0 empty empty empty 17 7 0 10 -262144 -1
-1;
#X obj 41 880 bng 15 250 50 0 empty empty empty 17 7 0 10 -262144 -1
-1;
#X obj 4 383 r death1;
#X obj 108 632 r death2;
#X obj 3 832 tabread4~ soundeffects;
#X msg 4 432 read -resize death.wav soundeffects;
#X obj 495 -139 select 1 2 3 4 5;
#X obj 569 -103 s win;
#X obj 601 207 bng 15 250 50 0 empty empty empty 17 7 0 10 -262144
-1 -1;
#X obj 601 226 t b b b;
#X obj 601 185 r win;
#X obj 41 856 r volume3;
#X msg 41 904 0.35;
#X obj 620 283 s win1;
#X obj 601 309 s win2;
#X obj 640 253 s volume4;
#X floatatom 242 540 10 0 0 0 - - -;
#X obj 269 616 * 1000;
#X floatatom 269 639 10 0 0 0 - - -;
#X obj 242 666 pack 0 0;
#X obj 242 562 t f f;
#X obj 242 820 line~;
#X obj 242 689 prepend set;
#X msg 242 738 101798 2308.34;
#X obj 229 1008 dac~;
#X obj 240 980 *~ 0.05;
#X obj 242 768 t a b;
#X msg 269 790 0;
#X obj 269 593 / 44100;
#X obj 242 485 soundfiler;
#X floatatom 242 513 10 0 0 0 - - -;
#X obj 330 704 bng 15 250 50 0 empty empty empty 17 7 0 10 -262144
-1 -1;
#X obj 242 432 bng 15 250 50 0 empty empty empty 17 7 0 10 -262144
-1 -1;
#X obj 279 904 bng 15 250 50 0 empty empty empty 17 7 0 10 -262144
-1 -1;
#X obj 241 856 tabread4~ soundeffects;
#X msg 279 928 0.35;
#X obj 242 407 r win1;
#X msg 242 456 read -resize win.wav soundeffects;
#X obj 346 656 r win2;
#X obj 279 880 r volume4;
#X connect 0 0 4 0;
#X connect 1 0 2 0;
#X connect 2 0 3 1;
#X connect 3 0 6 0;
#X connect 4 0 3 0;
#X connect 4 1 12 0;
#X connect 5 0 72 0;
#X connect 6 0 7 0;
#X connect 7 0 10 0;
#X connect 9 0 8 0;
#X connect 9 0 8 1;
#X connect 10 0 5 0;
#X connect 10 1 11 0;
#X connect 11 0 5 0;
#X connect 12 0 1 0;
#X connect 13 0 14 0;
#X connect 14 0 0 0;
#X connect 16 0 17 0;
#X connect 17 0 20 0;
#X connect 20 0 18 0;
#X connect 20 0 105 0;
#X connect 22 0 7 0;
#X connect 23 0 73 0;
#X connect 26 0 22 0;
#X connect 27 0 23 0;
#X connect 28 0 30 0;
#X connect 30 0 61 0;
#X connect 31 0 32 0;
#X connect 32 0 57 0;
#X connect 34 0 38 0;
#X connect 35 0 36 0;
#X connect 36 0 37 1;
#X connect 37 0 40 0;
#X connect 38 0 37 0;
#X connect 38 1 46 0;
#X connect 39 0 55 0;
#X connect 40 0 41 0;
#X connect 41 0 44 0;
#X connect 43 0 42 0;
#X connect 43 0 42 1;
#X connect 44 0 39 0;
#X connect 44 1 45 0;
#X connect 45 0 39 0;
#X connect 46 0 35 0;
#X connect 47 0 48 0;
#X connect 48 0 34 0;
#X connect 49 0 41 0;
#X connect 50 0 51 0;
#X connect 51 0 54 0;
#X connect 53 0 49 0;
#X connect 54 0 47 0;
#X connect 55 0 43 0;
#X connect 57 0 52 0;
#X connect 57 1 33 0;
#X connect 57 2 58 0;
#X connect 59 0 60 0;
#X connect 60 0 65 0;
#X connect 61 0 25 0;
#X connect 61 1 24 0;
#X connect 61 2 62 0;
#X connect 63 0 66 0;
#X connect 64 0 63 0;
#X connect 65 0 43 1;
#X connect 66 0 9 1;
#X connect 67 0 43 1;
#X connect 69 0 70 0;
#X connect 70 0 67 0;
#X connect 72 0 9 0;
#X connect 73 0 13 0;
#X connect 74 0 75 0;
#X connect 75 0 82 0;
#X connect 75 1 81 0;
#X connect 75 2 77 0;
#X connect 76 0 74 0;
#X connect 78 0 79 0;
#X connect 79 0 80 0;
#X connect 80 0 9 1;
#X connect 83 0 87 0;
#X connect 84 0 85 0;
#X connect 85 0 86 1;
#X connect 86 0 89 0;
#X connect 87 0 86 0;
#X connect 87 1 95 0;
#X connect 88 0 103 0;
#X connect 89 0 90 0;
#X connect 90 0 93 0;
#X connect 92 0 91 0;
#X connect 92 0 91 1;
#X connect 93 0 88 0;
#X connect 93 1 94 0;
#X connect 94 0 88 0;
#X connect 95 0 84 0;
#X connect 96 0 97 0;
#X connect 97 0 83 0;
#X connect 98 0 90 0;
#X connect 99 0 104 0;
#X connect 100 0 111 0;
#X connect 101 0 99 0;
#X connect 102 0 98 0;
#X connect 103 0 92 0;
#X connect 104 0 96 0;
#X connect 105 0 29 0;
#X connect 105 1 21 0;
#X connect 105 2 68 0;
#X connect 105 3 71 0;
#X connect 105 4 106 0;
#X connect 107 0 108 0;
#X connect 108 0 113 0;
#X connect 108 1 112 0;
#X connect 108 2 114 0;
#X connect 109 0 107 0;
#X connect 110 0 100 0;
#X connect 111 0 92 1;
#X connect 115 0 119 0;
#X connect 116 0 117 0;
#X connect 117 0 118 1;
#X connect 118 0 121 0;
#X connect 119 0 118 0;
#X connect 119 1 127 0;
#X connect 120 0 133 0;
#X connect 121 0 122 0;
#X connect 122 0 125 0;
#X connect 124 0 123 0;
#X connect 124 0 123 1;
#X connect 125 0 120 0;
#X connect 125 1 126 0;
#X connect 126 0 120 0;
#X connect 127 0 116 0;
#X connect 128 0 129 0;
#X connect 129 0 115 0;
#X connect 130 0 122 0;
#X connect 131 0 136 0;
#X connect 132 0 134 0;
#X connect 133 0 124 0;
#X connect 134 0 124 1;
#X connect 135 0 131 0;
#X connect 136 0 128 0;
#X connect 137 0 130 0;
#X connect 138 0 132 0;
